<?xml version="1.0" encoding="UTF-8"?><svg id="Capa_1" xmlns="http://www.w3.org/2000/svg" viewBox="0 0 536.46 355.11"><defs><style>.cls-1{fill:#ff7900;}.cls-1,.cls-2{stroke-width:0px;}.cls-2{fill:#00000e;}</style></defs><rect class="cls-1" x="186.9" y="163.61" width="61.79" height="27.86"/><rect class="cls-1" x="97.24" y="163.61" width="61.79" height="27.86"/><rect class="cls-1" x="159.04" y="101.83" width="27.86" height="61.79"/><rect class="cls-1" x="159.04" y="191.63" width="27.86" height="61.79"/><path class="cls-2" d="m359.09,123.04c25.61,0,46.93,16.92,53.02,40.57h27.11c-6.55-37.05-39.32-63.88-80.35-63.88s-73.83,26.67-80.36,63.88h26.93c6.19-23.66,28.04-40.57,53.65-40.57"/><path class="cls-2" d="m412.01,191.48c-6.22,23.55-27.63,40.6-52.91,40.6s-47.16-17.05-53.52-40.6h-26.97c6.72,36.92,39.4,63.9,80.28,63.9s73.56-26.99,80.28-63.9h-27.15Z"/></svg>